<svg xmlns="http://www.w3.org/2000/svg" viewBox="0 0 32 40" x="0px" y="0px"><title>share, media, network, social, link</title><circle cx="21" cy="10" r="2"/><circle cx="21" cy="22" r="2"/><circle cx="9" cy="16" r="2"/><path d="M16,1A15,15,0,1,0,31,16,15,15,0,0,0,16,1ZM13,16a3.86,3.86,0,0,1-.09.84L18,19.38A4,4,0,1,1,17,22a3.86,3.86,0,0,1,.09-.84L12,18.62a4,4,0,1,1,0-5.24l5.09-2.54A3.86,3.86,0,0,1,17,10a4,4,0,1,1,1,2.62l-5.09,2.54A3.86,3.86,0,0,1,13,16Z"/><text x="0" y="47" fill="#000000" font-size="5px" font-weight="bold" font-family="'Helvetica Neue', Helvetica, Arial-Unicode, Arial, Sans-serif">Created by Yogi Aprelliyanto</text><text x="0" y="52" fill="#000000" font-size="5px" font-weight="bold" font-family="'Helvetica Neue', Helvetica, Arial-Unicode, Arial, Sans-serif">from the Noun Project</text></svg>