<svg xmlns="http://www.w3.org/2000/svg" xmlns:xlink="http://www.w3.org/1999/xlink" version="1.1" x="0px" y="0px" viewBox="0 0 512 640" style="enable-background:new 0 0 512 512;" xml:space="preserve"><g><path d="M394.5,188.7c47.5,0,86.1-37.8,86.1-84.3S442,20,394.5,20s-86.1,37.8-86.1,84.3c0,4.5,0.4,8.9,1.1,13.2   l-148.1,86.9c-15.8-17.1-38.6-27.8-63.9-27.8c-47.5,0-86.1,37.8-86.1,84.3s38.6,84.3,86.1,84.3c25.4,0,48.3-10.8,64-28l147.3,82.2   c-0.3,2.7-0.4,5.5-0.4,8.3c0,46.5,38.6,84.3,86.1,84.3s86.1-37.8,86.1-84.3s-38.6-84.3-86.1-84.3c-35.8,0-66.5,21.5-79.5,52   l-139.9-78c5.4-11,8.5-23.4,8.5-36.4c0-13.1-3.1-25.6-8.6-36.7L317,141C330.9,169.2,360.4,188.7,394.5,188.7z M394.5,347.3   c34.3,0,62.1,27.1,62.1,60.3S428.8,468,394.5,468s-62.1-27.1-62.1-60.3S360.3,347.3,394.5,347.3z M97.5,321.2   c-34.3,0-62.1-27.1-62.1-60.3s27.9-60.3,62.1-60.3s62.1,27.1,62.1,60.3S131.7,321.2,97.5,321.2z M394.5,44   c34.3,0,62.1,27.1,62.1,60.3s-27.9,60.3-62.1,60.3s-62.1-27.1-62.1-60.3S360.3,44,394.5,44z"/></g></svg>