<svg xmlns="http://www.w3.org/2000/svg" xmlns:xlink="http://www.w3.org/1999/xlink" version="1.1" x="0px" y="0px" viewBox="0 0 100 125" style="enable-background:new 0 0 100 100;" xml:space="preserve"><path d="M73,82v1.9C66.4,88.4,58.5,91,50,91s-16.4-2.6-23-7.1V82c0-12.7,10.3-23,23-23S73,69.3,73,82z M50,9C27.4,9,9,27.4,9,50  c0,12.3,5.4,23.3,14,30.8c0.5-11.3,8-20.9,18.3-24.4C36.9,53.6,34,48.6,34,43c0-8.8,7.2-16,16-16s16,7.2,16,16  c0,5.6-2.9,10.6-7.3,13.4C69,59.9,76.5,69.5,77,80.8c8.6-7.5,14-18.5,14-30.8C91,27.4,72.6,9,50,9z M62,43c0-6.6-5.4-12-12-12  s-12,5.4-12,12s5.4,12,12,12S62,49.6,62,43z"/></svg>